<svg xmlns="http://www.w3.org/2000/svg" viewBox="0 0 164.67 148.88"><defs><style>.cls-1{isolation:isolate;}.cls-2{fill:none;stroke:#003d74;stroke-miterlimit:10;stroke-width:6.34px;}.cls-3,.cls-4{fill:#0091e4;}.cls-4{opacity:0.4;mix-blend-mode:multiply;}.cls-5{fill:#eceff0;}</style></defs><title>hand</title><g class="cls-1"><g id="Layer_1" data-name="Layer 1"><path class="cls-2" d="M226.83,139.16v-2.08a12.5,12.5,0,0,0-12.5-12.5H185.19c.58-2.3,2.29-8.1,5.72-12,4.37-5,9.72-18.85,6.75-31s-10.52-17.06-14.88-13.49-4.17,21.43-13.69,30.36-20,27-24.6,29.56H122.86v71.43h18.06s4.36,5,19.44,5c.33,0-.83-.07,45.9-.07,11.23,0,15-14.29,8.71-18.56,6.17-3.62,8.68-12.34,2.64-16.83,11.13-6.9,8.49-17.81,3.21-20.48A11.27,11.27,0,0,0,226.83,139.16Z" transform="translate(-65.33 -63.83)"/><rect class="cls-3" x="3.17" y="54.55" width="43.15" height="91.16" rx="7.12" ry="7.12"/><path class="cls-4" d="M68.49,164.07v38.36a7.12,7.12,0,0,0,7.12,7.12h28.92a7.12,7.12,0,0,0,7.12-7.12V164.07Z" transform="translate(-65.33 -63.83)"/><rect class="cls-2" x="3.17" y="54.55" width="43.15" height="91.16" rx="7.12" ry="7.12"/><circle class="cls-5" cx="31.72" cy="125.36" r="5.96"/></g></g></svg>
